HIERARCHY
ROOT Hips
{
	OFFSET 0.000000 88.474243 0.000000
	CHANNELS 6 Xposition Yposition Zposition Zrotation Yrotation Xrotation 
	JOINT Hips_Spine
	{
		OFFSET 0.000000 0.000000 0.000000
		CHANNELS 3 Zrotation Yrotation Xrotation
		JOINT Spine
		{
			OFFSET 0.005100 8.711998 -0.691000
			CHANNELS 3 Zrotation Yrotation Xrotation
			JOINT Spine1
			{
				OFFSET -0.009200 8.660301 -1.275000
				CHANNELS 3 Zrotation Yrotation Xrotation
				JOINT Spine2
				{
					OFFSET 0.006300 9.852501 -1.857000
					CHANNELS 3 Zrotation Yrotation Xrotation
					JOINT Spine2_Neck
					{
						OFFSET 0.000000 0.000000 0.000000
						CHANNELS 3 Zrotation Yrotation Xrotation
						JOINT Neck
						{
							OFFSET 0.016300 11.420799 -0.263300
							CHANNELS 3 Zrotation Yrotation Xrotation
							End Site #name: Head
							{
								OFFSET -0.019200 9.262405 2.362500
							}
						}
					}
					JOINT Spine2_LeftShoulder
					{
						OFFSET 0.000000 0.000000 0.000000
						CHANNELS 3 Zrotation Yrotation Xrotation
						JOINT LeftShoulder
						{
							OFFSET 5.616900 6.732201 -0.345700
							CHANNELS 3 Zrotation Yrotation Xrotation
							JOINT LeftArm
							{
								OFFSET 10.664888 -0.183372 -2.440700
								CHANNELS 3 Zrotation Yrotation Xrotation
								JOINT LeftForeArm
								{
									OFFSET 27.459126 0.000000 0.000000
									CHANNELS 3 Zrotation Yrotation Xrotation
									End Site #name: LeftHand
									{
										OFFSET 21.306858 0.000000 0.000000
									}
								}
							}
						}
					}
					JOINT Spine2_RightShoulder
					{
						OFFSET 0.000000 0.000000 0.000000
						CHANNELS 3 Zrotation Yrotation Xrotation
						JOINT RightShoulder
						{
							OFFSET -5.580300 6.737503 -0.344400
							CHANNELS 3 Zrotation Yrotation Xrotation
							JOINT RightArm
							{
								OFFSET -10.679335 -0.188484 -2.383900
								CHANNELS 3 Zrotation Yrotation Xrotation
								JOINT RightForeArm
								{
									OFFSET -27.503529 0.000000 0.000000
									CHANNELS 3 Zrotation Yrotation Xrotation
									End Site #name: RightHand
									{
										OFFSET -21.306808 0.000000 0.000000
									}
								}
							}
						}
					}
				}
			}
		}
	}
	JOINT Hips_LeftUpLeg
	{
		OFFSET 0.000000 0.000000 0.000000
		CHANNELS 3 Zrotation Yrotation Xrotation
		JOINT LeftUpLeg
		{
			OFFSET 6.857700 -6.739601 0.312100
			CHANNELS 3 Zrotation Yrotation Xrotation
			JOINT LeftLeg
			{
				OFFSET -0.367590 -34.731552 -4.572400
				CHANNELS 3 Zrotation Yrotation Xrotation
				End Site #name: LeftFoot
				{
					OFFSET 0.367590 -34.656704 -6.067400
				}
			}
		}
	}
	JOINT Hips_RightUpLeg
	{
		OFFSET 0.000000 0.000000 0.000000
		CHANNELS 3 Zrotation Yrotation Xrotation
		JOINT RightUpLeg
		{
			OFFSET -6.876100 -6.733299 0.301000
			CHANNELS 3 Zrotation Yrotation Xrotation
			JOINT RightLeg
			{
				OFFSET 0.347353 -34.795158 -4.515900
				CHANNELS 3 Zrotation Yrotation Xrotation
				End Site #name: RightFoot
				{
					OFFSET -0.347353 -34.589367 -6.070300
				}
			}
		}
	}
}
MOTION
Frames: 12
Frame Time: 0.041667
2.637253 -0.962736 -2.408009 175.653544 49.056589 -178.866641 0.000000 -0.000000 0.000000 4.670887 -3.605709 4.233795 0.920355 -1.732680 4.910845 0.000000 0.000000 0.000000 1.542092 -1.959924 5.175837 0.620560 -22.223194 0.526149 0.514528 -1.430376 2.519965 -0.466391 -3.087021 -1.734158 -83.191945 -24.679516 12.476054 9.429230 -13.777470 9.284233 0.939074 -3.115759 3.893513 20.246692 16.961303 4.657269 53.270404 12.359163 -2.533123 -3.778857 50.276398 1.429569 0.000000 0.000000 -0.000000 -2.009957 14.395465 -10.111365 -2.147229 -35.540518 -10.669342 0.000000 0.000000 -0.000000 -4.912753 -49.293482 -9.681040 -11.892084 -5.550105 20.883706 
2.673762 -0.974348 -2.463082 175.619352 48.594965 -178.982661 0.000000 -0.000000 0.000000 4.471709 -3.658803 4.367311 0.820143 -1.709885 4.813107 0.000000 0.000000 0.000000 1.458961 -1.938567 5.111929 0.609829 -21.822976 0.418092 0.451435 -1.426002 2.441177 -0.435145 -3.327503 -1.703570 -83.033859 -25.018482 13.001212 9.549599 -14.043418 9.376760 0.864167 -3.086191 3.787279 19.964164 16.958691 4.629689 53.197420 12.383020 -2.273133 -3.797779 49.475992 1.415042 0.000000 0.000000 -0.000000 -2.043041 14.305432 -10.449349 -2.237499 -35.247870 -10.319701 0.000000 0.000000 -0.000000 -4.751889 -49.328882 -9.815663 -11.917011 -5.441630 20.989355 
2.713073 -0.983188 -2.513763 175.607168 48.127427 -179.066518 0.000000 -0.000000 0.000000 4.253026 -3.679404 4.512417 0.730143 -1.682437 4.716240 0.000000 0.000000 0.000000 1.382550 -1.913104 5.052249 0.608152 -21.418655 0.260602 0.390867 -1.415875 2.368384 -0.382488 -3.599886 -1.675291 -82.844712 -25.343714 13.495482 9.649775 -14.341778 9.423560 0.796996 -3.052143 3.682117 19.602755 16.940716 4.588662 53.145129 12.384854 -1.946704 -3.825730 48.804678 1.388363 0.000000 0.000000 -0.000000 -2.081787 14.205290 -10.817525 -2.348468 -34.940350 -9.885769 0.000000 0.000000 -0.000000 -4.602274 -49.334048 -9.914255 -11.893245 -5.287030 21.044132 
2.756026 -0.989537 -2.561310 175.604882 47.727324 -179.121628 0.000000 -0.000000 0.000000 4.013661 -3.694952 4.672644 0.643790 -1.652137 4.624018 0.000000 0.000000 0.000000 1.307298 -1.885264 4.999377 0.630262 -20.994130 0.036395 0.333429 -1.401523 2.302428 -0.321523 -3.919888 -1.635564 -82.606399 -25.688296 13.930096 9.719189 -14.689130 9.401411 0.734174 -3.018168 3.581168 19.201367 16.913791 4.531272 53.139233 12.326995 -1.479507 -3.853876 48.236394 1.361082 0.000000 0.000000 -0.000000 -2.107477 14.095382 -11.209782 -2.489291 -34.613202 -9.368124 0.000000 0.000000 -0.000000 -4.464108 -49.270913 -9.990899 -11.841656 -5.119649 21.050829 
2.803549 -0.993043 -2.606247 175.599150 47.308712 -179.158377 0.000000 -0.000000 0.000000 3.750403 -3.727671 4.848270 0.558868 -1.631866 4.537788 0.000000 0.000000 0.000000 1.232191 -1.853748 4.953730 0.636965 -20.494910 -0.223419 0.276000 -1.383817 2.247714 -0.278571 -4.280692 -1.570520 -82.294934 -26.085098 14.285510 9.722424 -15.047811 9.299204 0.672299 -2.983070 3.492380 18.822248 16.902394 4.476802 53.152735 12.221742 -1.119524 -3.901272 47.816389 1.324076 0.000000 0.000000 -0.000000 -2.120742 13.971211 -11.607828 -2.650145 -34.247458 -8.783996 0.000000 -0.000000 -0.000000 -4.337018 -49.068430 -10.046676 -11.777596 -4.959930 21.005473 
2.856597 -0.993870 -2.648705 175.609273 46.892151 -179.167303 0.000000 -0.000000 0.000000 3.470439 -3.776341 5.028684 0.469132 -1.616905 4.467148 0.000000 0.000000 0.000000 1.153831 -1.824509 4.915958 0.636292 -19.922137 -0.512732 0.217439 -1.368973 2.204068 -0.243039 -4.680169 -1.492107 -81.886838 -26.573426 14.556218 9.675242 -15.460447 9.166901 0.611396 -2.952287 3.417262 18.497111 16.924221 4.428405 53.148261 12.104591 -0.970202 -3.934163 47.514615 1.299201 0.000000 0.000000 -0.000000 -2.120385 13.826406 -12.023290 -2.838083 -33.834253 -8.115599 0.000000 -0.000000 -0.000000 -4.223723 -48.698880 -10.088735 -11.551051 -4.718111 20.898750 
2.915784 -0.992902 -2.688460 175.612581 46.411613 -179.161535 0.000000 -0.000000 0.000000 3.174911 -3.853296 5.215698 0.375937 -1.605092 4.405490 0.000000 0.000000 0.000000 1.072559 -1.800800 4.883807 0.637481 -19.279393 -0.833360 0.157960 -1.353113 2.182342 -0.220533 -5.131226 -1.383117 -81.506498 -26.959020 14.695404 9.539535 -15.899034 8.975008 0.546078 -2.926897 3.351365 18.234989 16.865076 4.553774 53.148310 12.009076 -1.007780 -3.957602 47.336066 1.283414 0.000000 0.000000 -0.000000 -2.107342 13.659731 -12.452178 -3.049017 -33.353509 -7.377562 0.000000 -0.000000 -0.000000 -4.137818 -48.162638 -10.121296 -11.200787 -4.467405 20.739270 
2.981024 -0.990510 -2.724617 175.584532 45.849075 -179.160585 0.000000 -0.000000 0.000000 2.846528 -3.967216 5.421785 0.278130 -1.599522 4.355519 0.000000 0.000000 0.000000 0.983323 -1.780275 4.856455 0.631916 -18.571262 -1.182966 0.092531 -1.340904 2.159264 -0.187340 -5.610157 -1.261151 -81.156991 -27.304114 14.665079 9.370907 -16.383692 8.791846 0.475132 -2.908890 3.289203 18.025030 16.808597 4.696066 53.135640 11.941589 -1.184829 -3.981561 47.320300 1.265777 0.000000 0.000000 -0.000000 -2.090026 13.470780 -12.907820 -3.288642 -32.828853 -6.546281 0.000000 -0.000000 -0.000000 -4.079761 -47.504140 -10.177755 -10.876072 -4.318818 20.580019 
3.052646 -0.987039 -2.756344 175.530524 45.209985 -179.168761 0.000000 -0.000000 0.000000 2.480876 -4.113069 5.650156 0.172981 -1.600726 4.312929 0.000000 0.000000 0.000000 0.885929 -1.763217 4.834412 0.607546 -17.823291 -1.544288 0.023920 -1.335450 2.139885 -0.148656 -6.113949 -1.121967 -80.838038 -27.652704 14.506355 9.144186 -16.907435 8.606840 0.397761 -2.897293 3.227023 17.872555 16.786469 4.815407 53.109240 11.897056 -1.467528 -4.011583 47.524452 1.239630 0.000000 0.000000 -0.000000 -2.076849 13.284946 -13.411768 -3.545805 -32.231889 -5.618335 0.000000 -0.000000 -0.000000 -4.025244 -46.690692 -10.272669 -10.523222 -4.193414 20.441984 
3.132867 -0.982039 -2.784010 175.437257 44.560684 -179.209692 0.000000 -0.000000 0.000000 2.014411 -4.256967 5.917248 0.062247 -1.611065 4.273156 0.000000 0.000000 0.000000 0.782832 -1.751022 4.811363 0.572882 -17.060839 -1.905063 -0.047360 -1.335930 2.120903 -0.109455 -6.621524 -0.979244 -80.512563 -27.971559 14.244075 8.878460 -17.470771 8.401987 0.316350 -2.894077 3.163564 17.760595 16.814313 4.896237 53.066718 11.889926 -1.762832 -4.056474 47.900655 1.189455 0.000000 0.000000 -0.000000 -2.069178 13.138188 -13.945085 -3.818132 -31.639793 -4.621295 0.000000 -0.000000 -0.000000 -3.987272 -45.827309 -10.398096 -10.074936 -3.994463 20.311902 
3.222992 -0.975165 -2.807857 175.328752 43.981215 -179.266468 0.000000 -0.000000 0.000000 1.500112 -4.407024 6.218092 -0.051382 -1.628872 4.239734 0.000000 0.000000 0.000000 0.674102 -1.745426 4.789808 0.518167 -16.327657 -2.253201 -0.122100 -1.341790 2.104377 -0.078554 -7.125870 -0.825064 -80.203413 -28.235234 13.946023 8.589776 -18.082047 8.186856 0.231273 -2.898717 3.101731 17.694025 16.860886 4.954625 53.008085 11.939525 -2.062849 -4.149823 48.523906 1.094666 0.000000 0.000000 -0.000000 -2.069638 13.044240 -14.501721 -4.156002 -30.977968 -3.530874 0.000000 -0.000000 -0.000000 -3.968399 -44.948461 -10.534536 -9.568854 -3.770509 20.167209 
3.325018 -0.966832 -2.827776 175.206311 43.361605 -179.331064 0.000000 -0.000000 0.000000 0.934727 -4.570185 6.528029 -0.172532 -1.651162 4.210065 0.000000 0.000000 0.000000 0.559319 -1.739959 4.766590 0.486739 -15.615551 -2.611437 -0.200172 -1.351101 2.082905 -0.056788 -7.614835 -0.665467 -79.868857 -28.471077 13.594503 8.319414 -18.731023 7.995721 0.139696 -2.904670 3.033473 17.678262 16.923686 4.996454 52.964576 12.055416 -2.281988 -4.239380 49.496316 0.982902 0.000000 0.000000 -0.000000 -2.092866 13.016394 -15.040174 -4.487715 -30.350879 -2.435399 0.000000 -0.000000 -0.000000 -4.011114 -44.079764 -10.663129 -9.005360 -3.500038 19.990983 
